<svg width="50" height="50" viewBox="0 0 50 50" fill="none" xmlns="http://www.w3.org/2000/svg">
<path d="M25 1.91992C12.253 1.91992 1.92 12.2529 1.92 24.9999C1.92 37.7469 12.253 48.0799 25 48.0799C37.747 48.0799 48.08 37.7469 48.08 24.9999C48.08 12.2529 37.747 1.91992 25 1.91992ZM37.404 33.7584C36.419 34.3744 32.4165 34.5579 31.4475 33.8539C30.916 33.4679 30.43 32.9849 29.9685 32.5249C29.6455 32.2034 29.279 32.0474 29.0015 31.6984C28.775 31.4129 28.6195 31.0759 28.381 30.7939C27.9785 30.3209 27.359 29.9184 26.869 30.4964C26.131 31.3659 26.985 33.0734 26.001 33.7229C25.671 33.9409 25.338 34.0039 24.9255 33.9729L24.012 34.0144C23.4755 34.0249 22.6255 34.0299 22.015 33.9199C21.334 33.7969 20.7715 33.4249 20.1555 33.1519C18.9865 32.6334 17.873 31.9269 17.0255 30.9484C14.719 28.2834 11.621 24.6184 10.4175 21.2679C10.17 20.5794 9.516 19.2159 10.136 18.6254C10.979 18.0129 15.1165 17.8404 15.762 18.7874C16.024 19.1724 16.1895 19.7354 16.375 20.1719C16.606 20.7159 16.731 21.2284 17.092 21.7099C17.4115 22.1369 17.647 22.5664 17.894 23.0344C18.1715 23.5599 18.4335 24.0639 18.771 24.5474C19 24.8764 19.6055 25.5309 19.988 25.5794C20.922 25.6989 20.864 23.4294 20.7945 22.8754C20.728 22.3414 20.711 21.7749 20.7285 21.2334C20.7435 20.7714 20.785 20.1204 20.5115 19.7434C20.0655 19.1284 19.072 19.5884 18.9945 18.7619C19.1585 18.5274 19.124 18.3194 20.2195 17.9584C21.0825 17.6749 21.64 17.6839 22.209 17.7294C23.369 17.8224 24.599 17.5084 25.719 17.8844C26.789 18.2449 26.6235 19.7654 26.5875 20.6764C26.539 21.9199 26.591 23.1339 26.5875 24.3964C26.586 24.9709 26.563 25.5304 27.264 25.4834C27.921 25.4399 27.988 24.8869 28.3015 24.4309C28.7375 23.7949 29.138 23.1499 29.582 22.5164C30.1805 21.6599 30.3615 20.6974 30.925 19.8199C31.1265 19.5064 31.3 18.8384 31.6105 18.5904C31.8455 18.4019 32.292 18.5004 32.5765 18.5004H33.253C33.7705 18.5004 34.2985 18.4964 34.8305 18.5149C35.5965 18.5414 36.4545 18.3654 37.214 18.4729C40.4915 18.9354 33.0945 25.9419 33.4795 27.1929C33.7455 28.0569 35.433 29.0224 36.042 29.7299C36.8505 30.6724 39.3395 32.5459 37.404 33.7584Z" fill="#4C75A3"/>
</svg>
