<svg width="103" height="41" viewBox="0 0 103 41" fill="none" xmlns="http://www.w3.org/2000/svg">
<path d="M73.7678 22.7678C74.7441 21.7915 74.7441 20.2085 73.7678 19.2322L57.8579 3.32233C56.8816 2.34602 55.2986 2.34602 54.3223 3.32233C53.346 4.29864 53.346 5.88156 54.3223 6.85787L68.4645 21L54.3223 35.1421C53.346 36.1184 53.346 37.7014 54.3223 38.6777C55.2986 39.654 56.8816 39.654 57.8579 38.6777L73.7678 22.7678ZM22 23.5L72 23.5L72 18.5L22 18.5L22 23.5Z" fill="#66AB8C"/>
<path fill-rule="evenodd" clip-rule="evenodd" d="M74.1708 38.7171C74.3786 38.8989 74.6945 38.8779 74.8763 38.6701L89.6518 21.7838C90.3116 21.0297 90.3116 19.9038 89.6518 19.1498L74.8763 2.26351C74.6945 2.05569 74.3786 2.03463 74.1708 2.21647V2.21647C73.9629 2.39831 73.9419 2.71419 74.1237 2.92201L88.323 19.1498C88.9828 19.9038 88.9828 21.0297 88.323 21.7838L74.1237 38.0116C73.9419 38.2194 73.9629 38.5353 74.1708 38.7171V38.7171Z" fill="#66AB8C"/>
<path d="M74.1237 38.0116L75.2526 38.9993L74.1237 38.0116ZM88.323 19.1498L89.4519 18.162L88.323 19.1498ZM74.1237 2.92201L72.9949 3.90977L74.1237 2.92201ZM74.8763 2.26351L76.0052 1.27575L74.8763 2.26351ZM89.6518 21.7838L90.7806 22.7715L89.6518 21.7838ZM88.5229 20.796L73.7474 37.6823L76.0052 39.6578L90.7806 22.7715L88.5229 20.796ZM90.7806 18.162L76.0052 1.27575L73.7474 3.25126L88.5229 20.1375L90.7806 18.162ZM72.9949 3.90977L87.1941 20.1375L89.4519 18.162L75.2526 1.93425L72.9949 3.90977ZM75.2526 38.9993L89.4519 22.7716L87.1941 20.796L72.9949 37.0238L75.2526 38.9993ZM72.9949 37.0238C72.2675 37.8551 72.3517 39.1186 73.183 39.846L75.1585 37.5882C75.5741 37.9519 75.6163 38.5837 75.2526 38.9993L72.9949 37.0238ZM87.1941 20.1375C87.3591 20.326 87.3591 20.6075 87.1941 20.796L89.4519 22.7716C90.6065 21.452 90.6065 19.4816 89.4519 18.162L87.1941 20.1375ZM73.183 1.08761C72.3517 1.81497 72.2675 3.07849 72.9949 3.90977L75.2526 1.93425C75.6163 2.34989 75.5741 2.98165 75.1585 3.34534L73.183 1.08761ZM76.0052 1.27575C75.2778 0.444479 74.0143 0.36024 73.183 1.08761L75.1585 3.34534C74.7429 3.70902 74.1111 3.6669 73.7474 3.25126L76.0052 1.27575ZM73.7474 37.6823C74.1111 37.2667 74.7429 37.2246 75.1585 37.5882L73.183 39.846C74.0143 40.5733 75.2778 40.4891 76.0052 39.6578L73.7474 37.6823ZM90.7806 22.7715C91.9353 21.452 91.9353 19.4816 90.7806 18.162L88.5229 20.1375C88.6879 20.326 88.6879 20.6075 88.5229 20.796L90.7806 22.7715Z" fill="#66AB8C"/>
<path fill-rule="evenodd" clip-rule="evenodd" d="M84.8497 38.8763C85.0575 39.0581 85.3734 39.0371 85.5553 38.8292L100.331 21.943C100.991 21.1889 100.991 20.063 100.331 19.309L85.5553 2.42268C85.3734 2.21486 85.0575 2.19381 84.8497 2.37565V2.37565C84.6419 2.55749 84.6208 2.87337 84.8027 3.08119L99.002 19.309C99.6618 20.063 99.6618 21.1889 99.002 21.943L84.8027 38.1707C84.6208 38.3786 84.6419 38.6944 84.8497 38.8763V38.8763Z" fill="#66AB8C"/>
<path d="M84.8027 3.08119L85.9315 2.09343L84.8027 3.08119ZM85.5553 2.42268L84.4264 3.41044L85.5553 2.42268ZM100.331 21.943L99.2019 20.9552L100.331 21.943ZM100.331 19.309L101.46 18.3212L100.331 19.309ZM99.2019 20.9552L84.4264 37.8415L86.6841 39.817L101.46 22.9307L99.2019 20.9552ZM101.46 18.3212L86.6841 1.43493L84.4264 3.41044L99.2019 20.2967L101.46 18.3212ZM83.6738 4.06894L97.8731 20.2967L100.131 18.3212L85.9315 2.09343L83.6738 4.06894ZM85.9315 39.1585L100.131 22.9307L97.8731 20.9552L83.6738 37.183L85.9315 39.1585ZM83.6738 37.183C82.9464 38.0143 83.0307 39.2778 83.862 40.0051L85.8375 37.7474C86.2531 38.1111 86.2952 38.7429 85.9315 39.1585L83.6738 37.183ZM97.8731 20.2967C98.0381 20.4852 98.0381 20.7667 97.8731 20.9552L100.131 22.9307C101.285 21.6111 101.285 19.6408 100.131 18.3212L97.8731 20.2967ZM83.862 1.24678C83.0307 1.97415 82.9464 3.23767 83.6738 4.06894L85.9315 2.09343C86.2952 2.50907 86.2531 3.14083 85.8375 3.50451L83.862 1.24678ZM86.6841 1.43493C85.9568 0.603655 84.6932 0.519416 83.862 1.24678L85.8375 3.50451C85.4218 3.8682 84.7901 3.82607 84.4264 3.41044L86.6841 1.43493ZM84.4264 37.8415C84.7901 37.4259 85.4218 37.3837 85.8375 37.7474L83.862 40.0051C84.6932 40.7325 85.9568 40.6483 86.6841 39.817L84.4264 37.8415ZM101.46 22.9307C102.614 21.6111 102.614 19.6408 101.46 18.3212L99.2019 20.2967C99.3668 20.4852 99.3668 20.7667 99.2019 20.9552L101.46 22.9307Z" fill="#66AB8C"/>
</svg>
