<svg width="173" height="173" viewBox="0 0 173 173" fill="none" xmlns="http://www.w3.org/2000/svg">
<g filter="url(#filter0_d_29_847)">
<circle cx="81.5" cy="81.5" r="77" fill="#FA7C92" stroke="#6EC4DB" stroke-width="3"/>
<g clip-path="url(#clip0_29_847)">
<path d="M82 23L44 51.5V99H120V51.5L82 23ZM96.25 65.7825L82 76.9803L67.75 65.7825V51.5H96.25V65.7825ZM69.5845 73.2646L48.75 91.1236V56.8948L69.5845 73.2646ZM82 83.0198L90.6094 76.2567L111.599 94.25H52.4007L73.393 76.2566L82 83.0198ZM115.25 56.8948V91.1236L94.4177 73.2646L115.25 56.8948ZM113.283 52.4L101 62.053V46.75H96.25H67.75H63V62.0483L50.7168 52.3998L82 28.9375L113.283 52.4ZM91.5 58.625H72.5V56.25H91.5V58.625ZM91.5 63.375H72.5V61H91.5V63.375ZM91.5 68.125H72.5V65.75H91.5V68.125Z" fill="#FFF7C0"/>
</g>
<path d="M32.2812 120.574H34.5312C34.4141 121.652 34.1055 122.617 33.6055 123.469C33.1055 124.32 32.3984 124.996 31.4844 125.496C30.5703 125.988 29.4297 126.234 28.0625 126.234C27.0625 126.234 26.1523 126.047 25.332 125.672C24.5195 125.297 23.8203 124.766 23.2344 124.078C22.6484 123.383 22.1953 122.551 21.875 121.582C21.5625 120.605 21.4062 119.52 21.4062 118.324V116.625C21.4062 115.43 21.5625 114.348 21.875 113.379C22.1953 112.402 22.6523 111.566 23.2461 110.871C23.8477 110.176 24.5703 109.641 25.4141 109.266C26.2578 108.891 27.207 108.703 28.2617 108.703C29.5508 108.703 30.6406 108.945 31.5312 109.43C32.4219 109.914 33.1133 110.586 33.6055 111.445C34.1055 112.297 34.4141 113.285 34.5312 114.41H32.2812C32.1719 113.613 31.9688 112.93 31.6719 112.359C31.375 111.781 30.9531 111.336 30.4062 111.023C29.8594 110.711 29.1445 110.555 28.2617 110.555C27.5039 110.555 26.8359 110.699 26.2578 110.988C25.6875 111.277 25.207 111.688 24.8164 112.219C24.4336 112.75 24.1445 113.387 23.9492 114.129C23.7539 114.871 23.6562 115.695 23.6562 116.602V118.324C23.6562 119.16 23.7422 119.945 23.9141 120.68C24.0938 121.414 24.3633 122.059 24.7227 122.613C25.082 123.168 25.5391 123.605 26.0938 123.926C26.6484 124.238 27.3047 124.395 28.0625 124.395C29.0234 124.395 29.7891 124.242 30.3594 123.938C30.9297 123.633 31.3594 123.195 31.6484 122.625C31.9453 122.055 32.1562 121.371 32.2812 120.574ZM39.4531 108V126H37.2852V108H39.4531ZM38.9375 119.18L38.0352 119.145C38.043 118.277 38.1719 117.477 38.4219 116.742C38.6719 116 39.0234 115.355 39.4766 114.809C39.9297 114.262 40.4688 113.84 41.0938 113.543C41.7266 113.238 42.4258 113.086 43.1914 113.086C43.8164 113.086 44.3789 113.172 44.8789 113.344C45.3789 113.508 45.8047 113.773 46.1562 114.141C46.5156 114.508 46.7891 114.984 46.9766 115.57C47.1641 116.148 47.2578 116.855 47.2578 117.691V126H45.0781V117.668C45.0781 117.004 44.9805 116.473 44.7852 116.074C44.5898 115.668 44.3047 115.375 43.9297 115.195C43.5547 115.008 43.0938 114.914 42.5469 114.914C42.0078 114.914 41.5156 115.027 41.0703 115.254C40.6328 115.48 40.2539 115.793 39.9336 116.191C39.6211 116.59 39.375 117.047 39.1953 117.562C39.0234 118.07 38.9375 118.609 38.9375 119.18ZM57.9805 123.832V117.305C57.9805 116.805 57.8789 116.371 57.6758 116.004C57.4805 115.629 57.1836 115.34 56.7852 115.137C56.3867 114.934 55.8945 114.832 55.3086 114.832C54.7617 114.832 54.2812 114.926 53.8672 115.113C53.4609 115.301 53.1406 115.547 52.9062 115.852C52.6797 116.156 52.5664 116.484 52.5664 116.836H50.3984C50.3984 116.383 50.5156 115.934 50.75 115.488C50.9844 115.043 51.3203 114.641 51.7578 114.281C52.2031 113.914 52.7344 113.625 53.3516 113.414C53.9766 113.195 54.6719 113.086 55.4375 113.086C56.3594 113.086 57.1719 113.242 57.875 113.555C58.5859 113.867 59.1406 114.34 59.5391 114.973C59.9453 115.598 60.1484 116.383 60.1484 117.328V123.234C60.1484 123.656 60.1836 124.105 60.2539 124.582C60.332 125.059 60.4453 125.469 60.5938 125.812V126H58.332C58.2227 125.75 58.1367 125.418 58.0742 125.004C58.0117 124.582 57.9805 124.191 57.9805 123.832ZM58.3555 118.312L58.3789 119.836H56.1875C55.5703 119.836 55.0195 119.887 54.5352 119.988C54.0508 120.082 53.6445 120.227 53.3164 120.422C52.9883 120.617 52.7383 120.863 52.5664 121.16C52.3945 121.449 52.3086 121.789 52.3086 122.18C52.3086 122.578 52.3984 122.941 52.5781 123.27C52.7578 123.598 53.0273 123.859 53.3867 124.055C53.7539 124.242 54.2031 124.336 54.7344 124.336C55.3984 124.336 55.9844 124.195 56.4922 123.914C57 123.633 57.4023 123.289 57.6992 122.883C58.0039 122.477 58.168 122.082 58.1914 121.699L59.1172 122.742C59.0625 123.07 58.9141 123.434 58.6719 123.832C58.4297 124.23 58.1055 124.613 57.6992 124.98C57.3008 125.34 56.8242 125.641 56.2695 125.883C55.7227 126.117 55.1055 126.234 54.418 126.234C53.5586 126.234 52.8047 126.066 52.1562 125.73C51.5156 125.395 51.0156 124.945 50.6562 124.383C50.3047 123.812 50.1289 123.176 50.1289 122.473C50.1289 121.793 50.2617 121.195 50.5273 120.68C50.793 120.156 51.1758 119.723 51.6758 119.379C52.1758 119.027 52.7773 118.762 53.4805 118.582C54.1836 118.402 54.9688 118.312 55.8359 118.312H58.3555ZM68.8672 113.32V114.984H62.0117V113.32H68.8672ZM64.332 110.238H66.5V122.859C66.5 123.289 66.5664 123.613 66.6992 123.832C66.832 124.051 67.0039 124.195 67.2148 124.266C67.4258 124.336 67.6523 124.371 67.8945 124.371C68.0742 124.371 68.2617 124.355 68.457 124.324C68.6602 124.285 68.8125 124.254 68.9141 124.23L68.9258 126C68.7539 126.055 68.5273 126.105 68.2461 126.152C67.9727 126.207 67.6406 126.234 67.25 126.234C66.7188 126.234 66.2305 126.129 65.7852 125.918C65.3398 125.707 64.9844 125.355 64.7188 124.863C64.4609 124.363 64.332 123.691 64.332 122.848V110.238ZM90.8281 116.93V118.008C90.8281 119.289 90.668 120.438 90.3477 121.453C90.0273 122.469 89.5664 123.332 88.9648 124.043C88.3633 124.754 87.6406 125.297 86.7969 125.672C85.9609 126.047 85.0234 126.234 83.9844 126.234C82.9766 126.234 82.0508 126.047 81.207 125.672C80.3711 125.297 79.6445 124.754 79.0273 124.043C78.418 123.332 77.9453 122.469 77.6094 121.453C77.2734 120.438 77.1055 119.289 77.1055 118.008V116.93C77.1055 115.648 77.2695 114.504 77.5977 113.496C77.9336 112.48 78.4062 111.617 79.0156 110.906C79.625 110.188 80.3477 109.641 81.1836 109.266C82.0273 108.891 82.9531 108.703 83.9609 108.703C85 108.703 85.9375 108.891 86.7734 109.266C87.6172 109.641 88.3398 110.188 88.9414 110.906C89.5508 111.617 90.0156 112.48 90.3359 113.496C90.6641 114.504 90.8281 115.648 90.8281 116.93ZM88.5898 118.008V116.906C88.5898 115.891 88.4844 114.992 88.2734 114.211C88.0703 113.43 87.7695 112.773 87.3711 112.242C86.9727 111.711 86.4844 111.309 85.9062 111.035C85.3359 110.762 84.6875 110.625 83.9609 110.625C83.2578 110.625 82.6211 110.762 82.0508 111.035C81.4883 111.309 81.0039 111.711 80.5977 112.242C80.1992 112.773 79.8906 113.43 79.6719 114.211C79.4531 114.992 79.3438 115.891 79.3438 116.906V118.008C79.3438 119.031 79.4531 119.938 79.6719 120.727C79.8906 121.508 80.2031 122.168 80.6094 122.707C81.0234 123.238 81.5117 123.641 82.0742 123.914C82.6445 124.188 83.2812 124.324 83.9844 124.324C84.7188 124.324 85.3711 124.188 85.9414 123.914C86.5117 123.641 86.9922 123.238 87.3828 122.707C87.7812 122.168 88.082 121.508 88.2852 120.727C88.4883 119.938 88.5898 119.031 88.5898 118.008ZM96.0547 116.027V126H93.8867V113.32H95.9375L96.0547 116.027ZM95.5391 119.18L94.6367 119.145C94.6445 118.277 94.7734 117.477 95.0234 116.742C95.2734 116 95.625 115.355 96.0781 114.809C96.5312 114.262 97.0703 113.84 97.6953 113.543C98.3281 113.238 99.0273 113.086 99.793 113.086C100.418 113.086 100.98 113.172 101.48 113.344C101.98 113.508 102.406 113.773 102.758 114.141C103.117 114.508 103.391 114.984 103.578 115.57C103.766 116.148 103.859 116.855 103.859 117.691V126H101.68V117.668C101.68 117.004 101.582 116.473 101.387 116.074C101.191 115.668 100.906 115.375 100.531 115.195C100.156 115.008 99.6953 114.914 99.1484 114.914C98.6094 114.914 98.1172 115.027 97.6719 115.254C97.2344 115.48 96.8555 115.793 96.5352 116.191C96.2227 116.59 95.9766 117.047 95.7969 117.562C95.625 118.07 95.5391 118.609 95.5391 119.18ZM109.508 108V126H107.328V108H109.508ZM115.344 113.32V126H113.164V113.32H115.344ZM113 109.957C113 109.605 113.105 109.309 113.316 109.066C113.535 108.824 113.855 108.703 114.277 108.703C114.691 108.703 115.008 108.824 115.227 109.066C115.453 109.309 115.566 109.605 115.566 109.957C115.566 110.293 115.453 110.582 115.227 110.824C115.008 111.059 114.691 111.176 114.277 111.176C113.855 111.176 113.535 111.059 113.316 110.824C113.105 110.582 113 110.293 113 109.957ZM120.992 116.027V126H118.824V113.32H120.875L120.992 116.027ZM120.477 119.18L119.574 119.145C119.582 118.277 119.711 117.477 119.961 116.742C120.211 116 120.562 115.355 121.016 114.809C121.469 114.262 122.008 113.84 122.633 113.543C123.266 113.238 123.965 113.086 124.73 113.086C125.355 113.086 125.918 113.172 126.418 113.344C126.918 113.508 127.344 113.773 127.695 114.141C128.055 114.508 128.328 114.984 128.516 115.57C128.703 116.148 128.797 116.855 128.797 117.691V126H126.617V117.668C126.617 117.004 126.52 116.473 126.324 116.074C126.129 115.668 125.844 115.375 125.469 115.195C125.094 115.008 124.633 114.914 124.086 114.914C123.547 114.914 123.055 115.027 122.609 115.254C122.172 115.48 121.793 115.793 121.473 116.191C121.16 116.59 120.914 117.047 120.734 117.562C120.562 118.07 120.477 118.609 120.477 119.18ZM137.352 126.234C136.469 126.234 135.668 126.086 134.949 125.789C134.238 125.484 133.625 125.059 133.109 124.512C132.602 123.965 132.211 123.316 131.938 122.566C131.664 121.816 131.527 120.996 131.527 120.105V119.613C131.527 118.582 131.68 117.664 131.984 116.859C132.289 116.047 132.703 115.359 133.227 114.797C133.75 114.234 134.344 113.809 135.008 113.52C135.672 113.23 136.359 113.086 137.07 113.086C137.977 113.086 138.758 113.242 139.414 113.555C140.078 113.867 140.621 114.305 141.043 114.867C141.465 115.422 141.777 116.078 141.98 116.836C142.184 117.586 142.285 118.406 142.285 119.297V120.27H132.816V118.5H140.117V118.336C140.086 117.773 139.969 117.227 139.766 116.695C139.57 116.164 139.258 115.727 138.828 115.383C138.398 115.039 137.812 114.867 137.07 114.867C136.578 114.867 136.125 114.973 135.711 115.184C135.297 115.387 134.941 115.691 134.645 116.098C134.348 116.504 134.117 117 133.953 117.586C133.789 118.172 133.707 118.848 133.707 119.613V120.105C133.707 120.707 133.789 121.273 133.953 121.805C134.125 122.328 134.371 122.789 134.691 123.188C135.02 123.586 135.414 123.898 135.875 124.125C136.344 124.352 136.875 124.465 137.469 124.465C138.234 124.465 138.883 124.309 139.414 123.996C139.945 123.684 140.41 123.266 140.809 122.742L142.121 123.785C141.848 124.199 141.5 124.594 141.078 124.969C140.656 125.344 140.137 125.648 139.52 125.883C138.91 126.117 138.188 126.234 137.352 126.234Z" fill="#FFF7C0"/>
</g>
<defs>
<filter id="filter0_d_29_847" x="0" y="0" width="173" height="173" filterUnits="userSpaceOnUse" color-interpolation-filters="sRGB">
<feFlood flood-opacity="0" result="BackgroundImageFix"/>
<feColorMatrix in="SourceAlpha" type="matrix" values="0 0 0 0 0 0 0 0 0 0 0 0 0 0 0 0 0 0 127 0" result="hardAlpha"/>
<feOffset dx="5" dy="5"/>
<feGaussianBlur stdDeviation="4"/>
<feComposite in2="hardAlpha" operator="out"/>
<feColorMatrix type="matrix" values="0 0 0 0 0.325 0 0 0 0 0.310212 0 0 0 0 0.208542 0 0 0 0.3 0"/>
<feBlend mode="normal" in2="BackgroundImageFix" result="effect1_dropShadow_29_847"/>
<feBlend mode="normal" in="SourceGraphic" in2="effect1_dropShadow_29_847" result="shape"/>
</filter>
<clipPath id="clip0_29_847">
<rect width="76" height="76" fill="white" transform="translate(44 23)"/>
</clipPath>
</defs>
</svg>
