<svg width="41" height="103" viewBox="0 0 41 103" fill="none" xmlns="http://www.w3.org/2000/svg">
<path d="M18.2322 73.7678C19.2085 74.7441 20.7915 74.7441 21.7678 73.7678L37.6777 57.8579C38.654 56.8816 38.654 55.2986 37.6777 54.3223C36.7014 53.346 35.1184 53.346 34.1421 54.3223L20 68.4645L5.85786 54.3223C4.88155 53.346 3.29864 53.346 2.32233 54.3223C1.34602 55.2986 1.34602 56.8816 2.32233 57.8579L18.2322 73.7678ZM17.5 22L17.5 72L22.5 72L22.5 22L17.5 22Z" fill="#66AB8C"/>
<path fill-rule="evenodd" clip-rule="evenodd" d="M2.2829 74.1708C2.10106 74.3786 2.12212 74.6945 2.32993 74.8763L19.2162 89.6518C19.9703 90.3116 21.0962 90.3116 21.8502 89.6518L38.7365 74.8763C38.9443 74.6945 38.9654 74.3786 38.7835 74.1708C38.6017 73.9629 38.2858 73.9419 38.078 74.1237L21.8502 88.323C21.0962 88.9828 19.9703 88.9828 19.2162 88.323L2.98844 74.1237C2.78062 73.9419 2.46474 73.9629 2.2829 74.1708Z" fill="#66AB8C"/>
<path d="M2.98844 74.1237L2.00068 75.2526L2.98844 74.1237ZM21.8502 88.323L22.838 89.4519L21.8502 88.323ZM38.078 74.1237L37.0902 72.9949L38.078 74.1237ZM38.7365 74.8763L39.7243 76.0052L38.7365 74.8763ZM19.2162 89.6518L18.2285 90.7806L19.2162 89.6518ZM20.204 88.5229L3.31769 73.7474L1.34218 76.0052L18.2285 90.7806L20.204 88.5229ZM22.838 90.7806L39.7243 76.0052L37.7487 73.7474L20.8625 88.5229L22.838 90.7806ZM37.0902 72.9949L20.8625 87.1941L22.838 89.4519L39.0657 75.2526L37.0902 72.9949ZM2.00068 75.2526L18.2284 89.4519L20.204 87.1941L3.9762 72.9949L2.00068 75.2526ZM3.9762 72.9949C3.14492 72.2675 1.8814 72.3517 1.15403 73.183L3.41176 75.1585C3.04808 75.5741 2.41632 75.6163 2.00068 75.2526L3.9762 72.9949ZM20.8625 87.1941C20.674 87.3591 20.3925 87.3591 20.204 87.1941L18.2284 89.4519C19.548 90.6065 21.5184 90.6065 22.838 89.4519L20.8625 87.1941ZM39.9124 73.183C39.185 72.3517 37.9215 72.2675 37.0902 72.9949L39.0657 75.2526C38.6501 75.6163 38.0183 75.5741 37.6547 75.1585L39.9124 73.183ZM39.7243 76.0052C40.5555 75.2778 40.6398 74.0143 39.9124 73.183L37.6547 75.1585C37.291 74.7429 37.3331 74.1111 37.7487 73.7474L39.7243 76.0052ZM3.31769 73.7474C3.73333 74.1111 3.77545 74.7429 3.41176 75.1585L1.15403 73.183C0.426667 74.0143 0.510906 75.2778 1.34218 76.0052L3.31769 73.7474ZM18.2285 90.7806C19.548 91.9353 21.5184 91.9353 22.838 90.7806L20.8625 88.5229C20.674 88.6879 20.3925 88.6879 20.204 88.5229L18.2285 90.7806Z" fill="#66AB8C"/>
<path fill-rule="evenodd" clip-rule="evenodd" d="M2.12372 84.8497C1.94188 85.0575 1.96294 85.3734 2.17075 85.5553L19.057 100.331C19.8111 100.991 20.937 100.991 21.691 100.331L38.5773 85.5553C38.7851 85.3734 38.8062 85.0575 38.6244 84.8497C38.4425 84.6419 38.1266 84.6208 37.9188 84.8027L21.691 99.002C20.937 99.6618 19.8111 99.6618 19.057 99.002L2.82926 84.8027C2.62144 84.6208 2.30556 84.6419 2.12372 84.8497Z" fill="#66AB8C"/>
<path d="M37.9188 84.8027L38.9066 85.9315L37.9188 84.8027ZM38.5773 85.5553L37.5896 84.4264L38.5773 85.5553ZM19.057 100.331L20.0448 99.2019L19.057 100.331ZM21.691 100.331L22.6788 101.46L21.691 100.331ZM20.0448 99.2019L3.15851 84.4264L1.183 86.6841L18.0693 101.46L20.0448 99.2019ZM22.6788 101.46L39.5651 86.6841L37.5896 84.4264L20.7033 99.2019L22.6788 101.46ZM36.9311 83.6738L20.7033 97.8731L22.6788 100.131L38.9066 85.9315L36.9311 83.6738ZM1.8415 85.9315L18.0693 100.131L20.0448 97.8731L3.81702 83.6738L1.8415 85.9315ZM3.81702 83.6738C2.98574 82.9464 1.72222 83.0307 0.994853 83.862L3.25258 85.8375C2.8889 86.2531 2.25714 86.2952 1.8415 85.9315L3.81702 83.6738ZM20.7033 97.8731C20.5148 98.0381 20.2333 98.0381 20.0448 97.8731L18.0693 100.131C19.3889 101.285 21.3592 101.285 22.6788 100.131L20.7033 97.8731ZM39.7532 83.862C39.0259 83.0307 37.7623 82.9464 36.9311 83.6738L38.9066 85.9315C38.4909 86.2952 37.8592 86.2531 37.4955 85.8375L39.7532 83.862ZM39.5651 86.6841C40.3963 85.9568 40.4806 84.6932 39.7532 83.862L37.4955 85.8375C37.1318 85.4218 37.1739 84.7901 37.5896 84.4264L39.5651 86.6841ZM3.15851 84.4264C3.57415 84.7901 3.61627 85.4218 3.25258 85.8375L0.994853 83.862C0.267488 84.6932 0.351726 85.9568 1.183 86.6841L3.15851 84.4264ZM18.0693 101.46C19.3889 102.614 21.3592 102.614 22.6788 101.46L20.7033 99.2019C20.5148 99.3668 20.2333 99.3668 20.0448 99.2019L18.0693 101.46Z" fill="#66AB8C"/>
</svg>
