<svg width="82" height="29" viewBox="0 0 82 29" fill="none" xmlns="http://www.w3.org/2000/svg">
<path d="M18.9512 21.5137C18.9512 22.4043 18.8223 23.1953 18.5645 23.8867C18.3066 24.5781 17.9551 25.1816 17.5098 25.6973C17.0645 26.2012 16.5371 26.6289 15.9277 26.9805C15.3184 27.3203 14.6621 27.5957 13.959 27.8066C13.2676 28.0176 12.541 28.1699 11.7793 28.2637C11.0176 28.3574 10.2617 28.4043 9.51172 28.4043C8.50391 28.4043 7.61328 28.3398 6.83984 28.2109C6.06641 28.082 5.32812 27.877 4.625 27.5957C3.92188 27.3027 3.21875 26.9277 2.51562 26.4707C1.82422 26.0137 1.05078 25.457 0.195312 24.8008L3.6582 21.9707C3.97461 22.5684 4.39062 23.1133 4.90625 23.6055C5.43359 24.0859 5.97852 24.502 6.54102 24.8535C7.10352 25.2051 7.64844 25.4746 8.17578 25.6621C8.70312 25.8496 9.13086 25.9434 9.45898 25.9434C9.72852 25.9434 10.0332 25.9375 10.373 25.9258C10.7129 25.9023 11.0586 25.8672 11.4102 25.8203C11.7617 25.7617 12.1074 25.6797 12.4473 25.5742C12.7871 25.4688 13.0859 25.3281 13.3438 25.1523C13.6133 24.9648 13.8242 24.7363 13.9766 24.4668C14.1406 24.1855 14.2227 23.8516 14.2227 23.4648C14.2227 23.0664 14.1172 22.7207 13.9062 22.4277C13.707 22.123 13.4434 21.8594 13.1152 21.6367C12.7871 21.4141 12.4121 21.2266 11.9902 21.0742C11.5684 20.9219 11.1406 20.7871 10.707 20.6699C10.2852 20.5527 9.875 20.4531 9.47656 20.3711C9.07812 20.2773 8.73242 20.1895 8.43945 20.1074C7.90039 19.9551 7.33203 19.8027 6.73438 19.6504C6.13672 19.4863 5.54492 19.3047 4.95898 19.1055C4.37305 18.8945 3.81055 18.6484 3.27148 18.3672C2.74414 18.0859 2.27539 17.752 1.86523 17.3652C1.4668 16.9668 1.14453 16.5039 0.898438 15.9766C0.664062 15.4375 0.546875 14.8105 0.546875 14.0957C0.546875 12.7832 0.804688 11.6875 1.32031 10.8086C1.84766 9.91797 2.53906 9.20898 3.39453 8.68164C4.25 8.14258 5.22266 7.76172 6.3125 7.53906C7.40234 7.31641 8.50977 7.20508 9.63477 7.20508C10.4082 7.20508 11.2227 7.28711 12.0781 7.45117C12.9336 7.60352 13.7656 7.83789 14.5742 8.1543C15.3828 8.45898 16.1387 8.83398 16.8418 9.2793C17.5449 9.72461 18.1309 10.2344 18.5996 10.8086L15.1367 13.6562C14.8789 12.9531 14.5391 12.3496 14.1172 11.8457C13.707 11.3418 13.2559 10.9316 12.7637 10.6152C12.2832 10.2871 11.7852 10.0469 11.2695 9.89453C10.7656 9.74219 10.2969 9.66602 9.86328 9.66602C9.44141 9.66602 8.9668 9.68359 8.43945 9.71875C7.91211 9.75391 7.41406 9.85352 6.94531 10.0176C6.48828 10.1816 6.0957 10.4336 5.76758 10.7734C5.45117 11.1016 5.29297 11.5586 5.29297 12.1445C5.29297 12.5664 5.38672 12.9297 5.57422 13.2344C5.77344 13.5273 6.03125 13.7852 6.34766 14.0078C6.66406 14.2188 7.02148 14.4004 7.41992 14.5527C7.83008 14.6934 8.24609 14.8223 8.66797 14.9395C9.08984 15.0449 9.5 15.1387 9.89844 15.2207C10.2969 15.3027 10.6543 15.3906 10.9707 15.4844C11.5098 15.6367 12.0781 15.7949 12.6758 15.959C13.2852 16.1113 13.8828 16.293 14.4688 16.5039C15.0547 16.7031 15.6172 16.9434 16.1562 17.2246C16.707 17.4941 17.1875 17.8281 17.5977 18.2266C18.0078 18.625 18.3359 19.0938 18.582 19.6328C18.8281 20.1602 18.9512 20.7871 18.9512 21.5137ZM22.8344 28V-1.90735e-06H29.3144V28H22.8344ZM40.9594 28V5.28H31.9994V-1.90735e-06H56.3994V5.28H47.4394V28H40.9594ZM62.5472 8.39453C62.5472 8.74089 62.4788 9.06901 62.3421 9.37891C62.2145 9.6888 62.0368 9.95768 61.8089 10.1855C61.581 10.4134 61.3122 10.5957 61.0023 10.7324C60.6924 10.86 60.3642 10.9238 60.0179 10.9238C59.6715 10.9238 59.3434 10.86 59.0335 10.7324C58.7327 10.5957 58.4684 10.4134 58.2405 10.1855C58.0127 9.95768 57.8304 9.6888 57.6937 9.37891C57.5661 9.06901 57.5023 8.74089 57.5023 8.39453C57.5023 8.04818 57.5661 7.72461 57.6937 7.42383C57.8304 7.11393 58.0127 6.84505 58.2405 6.61719C58.4684 6.38932 58.7327 6.21159 59.0335 6.08398C59.3434 5.94727 59.6715 5.87891 60.0179 5.87891C60.3642 5.87891 60.6924 5.94727 61.0023 6.08398C61.3122 6.21159 61.581 6.38932 61.8089 6.61719C62.0368 6.84505 62.2145 7.11393 62.3421 7.42383C62.4788 7.72461 62.5472 8.04818 62.5472 8.39453ZM62.3421 28H57.7073V12.2227H62.3421V28ZM70.286 28H65.6649V6.39844H70.286V20.5762C71.0425 20.0293 71.7854 19.4277 72.5145 18.7715C73.2528 18.1152 73.9546 17.4271 74.62 16.707C75.2854 15.9779 75.9006 15.235 76.4657 14.4785C77.0399 13.722 77.5412 12.9655 77.9696 12.209H81.1141C80.4761 13.2845 79.7196 14.36 78.8446 15.4355C77.9696 16.502 77.0171 17.5228 75.9872 18.498L81.1688 28H76.0692L72.3915 21.4102C71.7079 21.875 71.0061 22.3034 70.286 22.6953V28Z" fill="#FFF7C0"/>
</svg>
