<svg width="50" height="50" viewBox="0 0 50 50" fill="none" xmlns="http://www.w3.org/2000/svg">
<g clip-path="url(#clip0_283_1411)">
<path d="M49.9854 0H0.0146484C0.00655833 0 0 0.00655833 0 0.0146484V49.9854C0 49.9934 0.00655833 50 0.0146484 50H49.9854C49.9934 50 50 49.9934 50 49.9854V0.0146484C50 0.00655833 49.9934 0 49.9854 0Z" fill="#37AEE2"/>
<path d="M19.4336 39.4531C18.3594 39.4531 18.457 39.0625 18.1641 38.0859L15.0391 27.832L38.9648 13.7695" fill="#C8DAEA"/>
<path d="M19.4336 39.4531C20.1172 39.4531 20.5078 39.0625 20.9961 38.6719L25.3906 34.4727L19.9219 31.1523" fill="#A9C9DD"/>
<path d="M19.9219 31.1521L33.1055 40.8201C34.4727 41.699 35.6445 41.2107 36.0352 39.4529L41.4062 14.2576C41.8945 12.1091 40.5273 11.1326 39.0625 11.8162L7.71484 23.9255C5.66406 24.7068 5.66406 25.9763 7.32422 26.4646L15.4297 29.0037L33.9844 17.1873C34.8633 16.699 35.6445 16.8943 35.0586 17.5779" fill="#F6FBFE"/>
</g>
<defs>
<clipPath id="clip0_283_1411">
<rect width="50" height="50" fill="white"/>
</clipPath>
</defs>
</svg>
