<svg width="50" height="50" viewBox="0 0 50 50" fill="none" xmlns="http://www.w3.org/2000/svg">
<path d="M49.999 24.0186C49.9387 30.34 48.3001 35.2855 44.8921 39.5828C41.2328 44.1993 36.4677 47.1307 30.637 48.3172C26.1332 49.2245 21.7501 48.8257 17.4474 47.2802C16.4924 46.9312 15.5575 46.5224 14.6628 46.0339C14.3913 45.8843 14.1601 45.8644 13.8585 45.9641C9.78705 47.2702 5.70553 48.5664 1.62401 49.8527C1.44306 49.9125 1.20179 50.082 1.06105 49.9524C0.900197 49.7928 1.10126 49.5535 1.16158 49.3641C1.97587 46.9612 2.79016 44.5482 3.61451 42.1453C4.11716 40.6796 4.5997 39.2239 5.12246 37.7682C5.2632 37.3893 5.21293 37.1001 5.00182 36.7512C3.96636 34.9963 3.20233 33.1218 2.65947 31.1576C1.64412 27.4684 1.53354 23.7394 2.32772 20.0103C3.19228 15.9423 5.00182 12.313 7.7865 9.18217C11.1543 5.3933 15.3061 2.89065 20.2422 1.6842C23.3888 0.916453 26.5655 0.796805 29.7624 1.31528C33.9444 1.99329 37.7143 3.63845 41.0016 6.29066C44.4196 9.05255 46.9128 12.4825 48.481 16.6004C49.3456 18.8238 50.0292 22.4631 49.999 24.0186ZM7.19337 43.9301C9.68652 43.1324 12.0691 42.3746 14.4315 41.6069C14.7432 41.5072 14.9945 41.5271 15.2659 41.7066C16.1707 42.3048 17.1458 42.7834 18.1511 43.2022C21.4184 44.5782 24.8163 45.0767 28.3248 44.628C32.6275 44.0796 36.4074 42.3647 39.5841 39.3834C43.5852 35.6245 45.7265 31.018 45.9175 25.574C46.0985 20.2397 44.3694 15.5534 40.7603 11.5751C37.3323 7.79624 33.0296 5.64257 27.9528 5.10415C23.5395 4.63552 19.4078 5.58274 15.5876 7.85606C12.3204 9.81032 9.81721 12.4725 8.07804 15.8326C6.15792 19.5318 5.50447 23.4602 6.05739 27.5781C6.46956 30.689 7.59549 33.5506 9.40503 36.123C9.60609 36.4122 9.66641 36.6514 9.54578 36.9905C9.17381 38.0075 8.84207 39.0344 8.49021 40.0515C8.06798 41.3078 7.65581 42.5641 7.19337 43.9301Z" fill="#51C85D"/>
<path d="M13.8684 19.3235C13.9186 16.9504 14.7631 15.1856 16.3615 13.7798C16.8742 13.3211 17.5076 13.1217 18.2213 13.2214C18.5229 13.2613 18.8245 13.2912 19.1261 13.2713C19.6891 13.2413 20.0711 13.5106 20.2621 13.9991C20.9357 15.734 21.5891 17.4689 22.2425 19.2138C22.4637 19.812 22.0817 20.2807 21.76 20.7094C21.388 21.2179 20.9356 21.6666 20.4933 22.1153C20.0409 22.5739 19.9806 22.8332 20.2923 23.3915C22.1119 26.6719 24.6653 29.1945 28.1336 30.7499C28.2543 30.7997 28.3749 30.8695 28.4955 30.9294C28.958 31.1388 29.3702 31.0889 29.722 30.6901C30.3654 29.9423 31.0691 29.2543 31.6623 28.4666C32.0543 27.9481 32.3258 27.8584 32.9189 28.1176C34.6882 28.8754 36.347 29.8326 38.0359 30.7599C38.3475 30.9294 38.4581 31.1886 38.4481 31.5476C38.3576 34.4889 36.6586 36.0244 33.6729 36.7024C32.2252 37.0314 30.8882 36.6725 29.5612 36.1939C26.7765 35.1968 24.0923 34.0203 21.8404 32.0461C20.051 30.4707 18.4727 28.7159 17.1356 26.7516C16.1102 25.2361 15.0446 23.7505 14.4514 21.9857C14.1096 21.0484 13.8583 20.0912 13.8684 19.3235Z" fill="#51C85D"/>
</svg>
